<?xml version="1.0" encoding="UTF-8" ?>
<svg width="500pt" height="500pt" viewBox="0 0 500 500" version="1.1" xmlns="http://www.w3.org/2000/svg">
<path fill="#fdfeff" d=" M 0.00 0.00 L 240.33 0.00 C 234.48 10.18 229.45 20.85 222.59 30.43 C 216.79 39.19 210.74 47.84 203.48 55.47 C 198.81 61.42 193.13 66.43 187.40 71.33 C 182.42 76.79 176.05 80.64 170.76 85.76 C 165.84 89.45 161.04 93.29 156.34 97.26 C 112.32 131.16 64.88 160.57 15.07 185.19 C 9.96 187.78 4.64 190.07 0.00 193.48 L 0.00 0.00 Z" />
<path fill="#2ba1da" d=" M 240.33 0.00 L 242.82 0.00 C 242.82 46.30 242.80 92.60 242.83 138.90 C 237.84 139.97 233.42 142.56 228.90 144.79 C 218.89 149.30 208.92 153.92 199.21 159.05 C 190.61 162.88 182.76 168.17 174.23 172.14 C 154.69 182.26 135.83 193.58 116.99 204.91 C 106.03 211.97 94.80 218.61 84.22 226.23 C 78.24 231.00 71.43 234.63 65.70 239.73 C 61.75 243.44 57.32 246.66 54.06 251.04 C 45.21 260.22 39.08 271.58 33.97 283.15 C 30.72 291.37 28.47 300.14 28.62 309.03 C 29.67 329.83 36.14 350.05 45.05 368.76 C 52.97 388.04 65.21 405.38 80.17 419.84 C 82.07 421.75 84.52 424.18 83.23 427.12 C 77.23 424.26 73.17 418.88 67.97 414.95 C 65.00 412.61 62.54 409.73 60.18 406.80 C 43.31 388.82 30.53 367.44 19.76 345.39 C 13.15 331.93 7.95 317.82 3.61 303.48 C 2.25 298.62 1.59 293.59 0.00 288.78 L 0.00 193.48 C 4.64 190.07 9.96 187.78 15.07 185.19 C 64.88 160.57 112.32 131.16 156.34 97.26 C 161.04 93.29 165.84 89.45 170.76 85.76 C 176.05 80.64 182.42 76.79 187.40 71.33 C 193.13 66.43 198.81 61.42 203.48 55.47 C 210.74 47.84 216.79 39.19 222.59 30.43 C 229.45 20.85 234.48 10.18 240.33 0.00 Z" />
<path fill="#fdfeff" d=" M 242.82 0.00 L 267.43 0.00 C 267.43 76.35 267.44 152.69 267.43 229.04 C 267.51 230.24 267.33 231.63 268.21 232.62 C 271.78 233.08 275.40 232.80 278.99 232.84 C 352.66 232.83 426.33 232.84 500.00 232.84 L 500.00 262.31 C 423.99 262.32 347.97 262.30 271.96 262.32 C 270.86 262.23 269.09 262.63 269.34 264.11 C 269.25 290.07 269.34 316.03 269.31 341.99 C 269.47 362.13 268.99 382.27 269.55 402.39 C 274.34 401.79 279.16 401.84 283.98 401.90 C 310.06 401.91 336.14 401.90 362.22 401.91 C 362.51 417.41 362.18 432.91 362.40 448.41 C 360.26 448.77 358.11 449.07 355.95 449.11 C 329.30 449.03 302.65 449.09 276.01 449.08 C 273.87 449.02 271.74 448.80 269.62 448.55 C 268.90 464.01 269.51 479.52 269.31 495.00 C 346.20 495.00 423.10 495.00 500.00 495.00 L 500.00 500.00 L 0.00 500.00 L 0.00 288.78 C 1.59 293.59 2.25 298.62 3.61 303.48 C 7.95 317.82 13.15 331.93 19.76 345.39 C 30.53 367.44 43.31 388.82 60.18 406.80 C 62.54 409.73 65.00 412.61 67.97 414.95 C 73.17 418.88 77.23 424.26 83.23 427.12 C 84.52 424.18 82.07 421.75 80.17 419.84 C 65.21 405.38 52.97 388.04 45.05 368.76 C 36.14 350.05 29.67 329.83 28.62 309.03 C 28.47 300.14 30.72 291.37 33.97 283.15 C 39.08 271.58 45.21 260.22 54.06 251.04 C 57.32 246.66 61.75 243.44 65.70 239.73 C 71.43 234.63 78.24 231.00 84.22 226.23 C 94.80 218.61 106.03 211.97 116.99 204.91 C 135.83 193.58 154.69 182.26 174.23 172.14 C 182.76 168.17 190.61 162.88 199.21 159.05 C 208.92 153.92 218.89 149.30 228.90 144.79 C 233.42 142.56 237.84 139.97 242.83 138.90 C 242.80 92.60 242.82 46.30 242.82 0.00 Z" />
<path fill="#1f7aa6" d=" M 267.43 0.00 L 410.00 0.00 C 409.96 45.51 410.08 91.01 409.94 136.52 C 414.24 137.40 418.64 137.20 423.00 137.15 C 448.67 137.15 474.33 137.15 500.00 137.15 L 500.00 232.84 C 426.33 232.84 352.66 232.83 278.99 232.84 C 275.40 232.80 271.78 233.08 268.21 232.62 C 267.33 231.63 267.51 230.24 267.43 229.04 C 267.44 152.69 267.43 76.35 267.43 0.00 Z" />
<path fill="#fdfeff" d=" M 410.00 0.00 L 500.00 0.00 L 500.00 137.15 C 474.33 137.15 448.67 137.15 423.00 137.15 C 418.64 137.20 414.24 137.40 409.94 136.52 C 410.08 91.01 409.96 45.51 410.00 0.00 Z" />
<path fill="#2ba1da" d=" M 235.72 184.68 C 237.68 181.60 238.69 177.93 241.20 175.20 C 242.48 175.68 243.02 176.60 242.82 177.95 C 242.86 207.66 242.71 237.37 242.89 267.07 C 241.56 267.34 240.23 267.59 238.91 267.86 C 226.86 273.70 214.47 278.89 202.96 285.79 C 185.75 294.12 169.50 304.23 153.28 314.29 C 141.74 322.25 129.15 329.10 119.71 339.67 C 113.18 347.40 107.73 356.24 105.33 366.16 C 101.76 376.35 104.51 387.21 107.49 397.16 C 111.13 410.38 116.94 423.00 124.74 434.28 C 129.25 440.68 134.69 446.32 140.10 451.94 C 139.75 452.42 139.06 453.37 138.71 453.84 C 128.61 446.92 120.39 437.55 113.21 427.70 C 107.45 420.50 103.20 412.24 99.17 403.99 C 95.43 396.73 91.66 389.44 89.49 381.52 C 87.30 376.14 86.49 370.33 84.30 364.97 C 84.45 364.61 84.76 363.88 84.92 363.51 C 84.19 361.40 83.30 359.28 83.38 357.00 C 83.51 352.94 82.16 349.02 82.22 344.97 C 82.28 334.98 82.27 325.00 82.22 315.01 C 82.15 311.05 83.48 307.23 83.43 303.27 C 86.89 298.69 92.57 297.08 97.41 294.45 C 106.68 289.96 115.71 285.00 124.52 279.66 C 142.99 269.57 160.36 257.62 177.45 245.36 C 188.57 236.59 200.16 228.31 210.29 218.37 C 220.62 208.71 228.79 196.96 235.72 184.68 Z" />
<path fill="#2ba1da" d=" M 269.34 264.11 C 269.09 262.63 270.86 262.23 271.96 262.32 C 347.97 262.30 423.99 262.32 500.00 262.31 L 500.00 309.00 C 469.63 309.00 439.27 309.00 408.90 309.00 C 408.90 324.67 408.88 340.33 408.91 356.00 C 439.27 356.00 469.64 356.00 500.00 356.00 L 500.00 495.00 C 423.10 495.00 346.20 495.00 269.31 495.00 C 269.51 479.52 268.90 464.01 269.62 448.55 C 271.74 448.80 273.87 449.02 276.01 449.08 C 302.65 449.09 329.30 449.03 355.95 449.11 C 358.11 449.07 360.26 448.77 362.40 448.41 C 362.18 432.91 362.51 417.41 362.22 401.91 C 336.14 401.90 310.06 401.91 283.98 401.90 C 279.16 401.84 274.34 401.79 269.55 402.39 C 268.99 382.27 269.47 362.13 269.31 341.99 C 269.34 316.03 269.25 290.07 269.34 264.11 Z" />
<path fill="#2ba1da" d=" M 240.23 297.99 C 240.87 298.01 242.16 298.05 242.81 298.06 C 242.85 317.68 242.74 337.30 242.87 356.92 C 217.50 368.07 193.16 381.64 170.56 397.70 C 163.06 402.91 157.11 410.41 154.18 419.10 C 152.06 424.48 152.97 430.39 152.95 436.03 C 154.44 443.40 157.87 450.18 160.81 457.06 C 164.64 463.99 169.18 470.59 175.14 475.88 C 174.97 476.71 174.63 478.39 174.46 479.23 C 171.27 476.89 168.61 473.95 165.62 471.40 C 157.85 463.44 152.29 453.71 146.99 444.02 C 144.90 439.07 143.16 433.96 141.34 428.90 C 137.64 416.30 136.72 403.06 137.36 389.98 C 137.29 385.26 137.61 378.87 142.75 376.83 C 151.28 372.86 159.39 368.13 167.67 363.69 C 171.99 361.08 176.52 358.81 180.47 355.64 C 191.02 349.00 201.15 341.71 210.91 333.96 C 215.01 331.11 218.30 327.33 221.86 323.88 C 229.67 316.62 235.52 307.49 240.23 297.99 Z" />
<path fill="#fdfeff" d=" M 408.90 309.00 C 439.27 309.00 469.63 309.00 500.00 309.00 L 500.00 356.00 C 469.64 356.00 439.27 356.00 408.91 356.00 C 408.88 340.33 408.90 324.67 408.90 309.00 Z" />
</svg>
